<svg width="800" height="600" xmlns="http://www.w3.org/2000/svg">
  <!-- Background -->
  <rect width="800" height="600" fill="#3a7f3a"/>
  
  <!-- Main road surface (horizontal) - full width -->
  <rect x="0" y="150" width="800" height="300" fill="#404040"/>
  
  <!-- Remove only the tiny square between main road and exit ramp -->
  <rect x="750" y="350" width="50" height="60" fill="#3a7f3a"/>
  
  <!-- Exit ramp surface - gentler top curve, sharper bottom, narrower at end -->
  <path d="M 620,350 Q 685,380 750,410 L 800,410 L 800,510 L 750,510 Q 665,480 580,450 Z" fill="#404040"/>
  
  <!-- Remove ONLY the small area between continuous line and exit ramp, within white edges -->
  <path d="M 620,350 L 750,350 L 750,410 Q 685,380 620,350" fill="#3a7f3a"/>
  
  <!-- Lane divider lines (horizontal) -->
  <!-- Top lane divider -->
  <g stroke="#ffffff" stroke-width="3" stroke-dasharray="20,15" fill="none">
    <line x1="0" y1="250" x2="800" y2="250"/>
  </g>
  
  <!-- Bottom lane divider -->
  <g stroke="#ffffff" stroke-width="3" stroke-dasharray="20,15" fill="none">
    <line x1="0" y1="350" x2="620" y2="350"/>
  </g>
  
  <!-- Continue bottom lane divider as solid line -->
  <line x1="620" y1="350" x2="800" y2="350" stroke="#ffffff" stroke-width="3"/>
  
  <!-- Exit ramp divider -->
  <g stroke="#ffffff" stroke-width="3" stroke-dasharray="20,15" fill="none">
    <path d="M 620,350 Q 685,380 750,410" />
  </g>
  
  <!-- Road edges -->
  <!-- Top edge -->
  <line x1="0" y1="150" x2="800" y2="150" stroke="#ffffff" stroke-width="4"/>
  
  <!-- Bottom edge (main road) -->
  <line x1="0" y1="450" x2="580" y2="450" stroke="#ffffff" stroke-width="4"/>
  
  <!-- Exit ramp edges -->
  <path d="M 620,350 Q 685,380 750,410" stroke="#ffffff" stroke-width="4" fill="none"/>
  <path d="M 580,450 Q 665,480 750,510" stroke="#ffffff" stroke-width="4" fill="none"/>
  <line x1="750" y1="410" x2="800" y2="410" stroke="#ffffff" stroke-width="4"/>
  <line x1="750" y1="510" x2="800" y2="510" stroke="#ffffff" stroke-width="4"/>
</svg>